<svg width="105" height="93" viewBox="0 0 105 93" fill="none" xmlns="http://www.w3.org/2000/svg">
<path fill-rule="evenodd" clip-rule="evenodd" d="M23.1961 39.4412C17.3228 55.5499 14.9672 75.4064 14.967 88.5774L0.925781 88.5773C0.925951 74.2226 3.43131 52.659 10.0044 34.6313C13.2869 25.6284 17.7656 16.9964 23.8875 10.6249C30.1587 4.09785 38.339 -0.19711 48.3826 0.335538C54.1617 0.642026 58.9334 3.06797 62.4419 7.01621C63.8735 8.62717 65.0428 10.4298 65.9946 12.3466C67.8145 11.0796 69.6333 9.93818 71.435 8.94622C75.8521 6.51429 80.6923 4.68639 85.5098 4.52842C90.641 4.36017 95.6548 6.12739 99.3552 10.5441C105.243 17.5713 104.135 26.46 101.894 33.4844C99.5834 40.7239 95.2929 48.458 91.3721 55.2949C90.8229 56.2526 90.2818 57.1915 89.7515 58.1117C86.2959 64.1078 83.3006 69.3053 81.5296 73.6796C80.5352 76.1359 80.1973 77.7136 80.1681 78.5998C80.3033 78.6449 80.4179 78.624 80.594 78.5889C81.2452 78.4593 82.4703 77.9172 84.1063 76.473C87.408 73.5583 90.3532 68.774 91.5021 65.0838L104.909 69.2575C103.03 75.292 98.7121 82.3089 93.3989 86.9994C90.7275 89.3577 87.3074 91.5691 83.3358 92.3599C79.0329 93.2166 74.5497 92.2869 70.7386 89.0967C67.1928 86.1286 66.0625 82.0872 66.1275 78.4121C66.188 74.989 67.2582 71.5138 68.5146 68.4104C70.6839 63.0521 74.2521 56.8715 77.6386 51.0057C78.1626 50.0981 78.6822 49.1981 79.1916 48.3098C83.2006 41.319 86.7279 34.822 88.517 29.2156C90.3748 23.3941 89.6483 20.822 88.5923 19.5616C88.0267 18.8866 87.3872 18.5157 85.97 18.5621C84.2391 18.6189 81.636 19.3586 78.2072 21.2464C75.5198 22.726 72.6464 24.7315 69.7115 27.143C70.3726 35.358 69.4054 44.4869 67.5239 52.959C65.1123 63.8179 60.9706 74.6187 55.7681 82.0053C53.2117 85.6348 49.9165 89.1362 45.8 90.9647C41.1333 93.0376 35.972 92.6729 31.4828 89.3655C26.8979 85.9877 24.9656 81.0459 24.6484 76.1054C24.343 71.3483 25.4765 66.2774 27.2462 61.4341C30.8032 51.6995 37.6449 40.9692 45.4586 31.6538C48.3416 28.2168 51.4294 24.8857 54.6254 21.8051C53.9029 19.2402 52.9452 17.4676 51.946 16.3432C50.9065 15.1734 49.635 14.4629 47.639 14.3571C42.5113 14.0852 38.098 16.1011 34.0125 20.3531C29.7777 24.7607 26.1368 31.3759 23.1961 39.4412ZM55.2376 41.8596C48.5295 50.067 43.1245 58.8915 40.4346 66.2531C39.016 70.1354 38.5282 73.1394 38.6608 75.2057C38.7817 77.0887 39.3469 77.7189 39.8112 78.0609C39.9661 78.175 39.9818 78.2144 39.9908 78.213C39.999 78.2116 40.0016 78.1762 40.1 78.1325C40.8561 77.7966 42.3587 76.6598 44.2884 73.9199C48.0583 68.5675 51.6425 59.7044 53.8166 49.9149C54.4186 47.2041 54.8951 44.5003 55.2376 41.8596Z" fill="#B087F4"/>
</svg>
