<svg width="467" height="452" viewBox="0 0 467 452" fill="none" xmlns="http://www.w3.org/2000/svg">
<g clip-path="url(#clip0_611_103)">
<path d="M141.867 3.20004C134.667 7.60004 132.667 13.8667 132.8 32C132.8 44.5334 133.6 51.0667 136.4 62.1334C141.2 81.6 148.267 103.333 156.933 125.067C160.933 135.2 163.867 143.867 163.467 144.267C163.067 144.667 156.8 140 149.6 133.867C123.067 111.467 95.6001 92.6667 74.8001 82.4C53.8668 72.1334 38.5334 72.9334 33.7334 84.4C29.0667 95.7334 34.4001 112 50.4001 134.667C59.2001 147.067 89.3334 177.733 108.667 193.867C116 200 122.267 205.6 122.4 206.133C122.667 206.8 119.6 207.333 115.6 207.333C104.667 207.333 70.4001 212.267 54.8001 216C21.4667 224.133 1.46675 239.733 0.80008 258.133C0.666747 266.267 4.13341 271.2 12.8001 274.533C24.5334 279.2 58.2668 277.733 105.067 270.533C117.067 268.667 127.467 267.333 128.267 267.6C128.933 267.867 124.533 272.267 118.4 277.333C98.2668 294.133 71.6001 321.733 63.3334 334.533C55.3334 346.8 49.4668 361.067 49.3334 368C49.3334 373.6 54.6668 383.6 58.6668 385.733C63.3334 388.133 77.8668 386.933 85.7334 383.467C89.3334 382 95.6001 378.4 99.7334 375.733C110.267 368.8 156.533 334.8 164.4 328.4C167.867 325.467 170.667 323.867 170.667 324.667C170.667 325.6 168.533 333.6 166 342.533C148.4 403.867 146.4 438.267 159.733 448.667C163.867 452 174.4 452.267 180.8 449.2C194.8 442.533 209.867 414 224.133 367.333C227.733 355.333 237.733 318.533 240.533 306.8C241.067 304.8 241.733 303.333 242.133 303.733C242.533 304.133 245.2 311.2 248 319.6C261.6 360.4 288.8 409.733 308 428.8C324.533 445.2 340.8 446 348.933 430.933C352.267 424.8 351.867 405.867 348.133 391.333C343.2 371.467 326.4 330.667 308.8 295.6C304.667 287.467 301.733 280.667 302.133 280.667C302.667 280.667 310.267 283.6 319.2 287.2C328.133 290.8 343.2 296.267 352.667 299.333C362.267 302.4 371.2 305.467 372.667 306.133C384.8 311.333 424.8 317.6 436 316C463.2 312.267 474 294.4 459.733 276.4C448.4 262 403.6 242.133 353.467 229.333C343.6 226.8 335.333 224.4 334.933 224.133C334.667 223.733 339.733 221.867 346.133 219.867C383.333 208.667 413.6 192.533 433.467 173.333C444.667 162.533 449.333 155.067 449.333 147.867C449.333 135.2 438.267 129.867 419.067 133.2C402.4 136.267 378.4 142.667 354.933 150.4C340.533 155.2 333.467 157.067 333.867 155.867C334.267 154.8 339.067 147.6 344.533 139.733C378.667 90.1334 389.733 55.3334 374.133 45.8667C364.4 39.8667 349.067 44.8 333.733 58.6667C325.333 66.1334 305.333 91.7334 288 116.933C282.667 124.8 277.867 131.067 277.6 130.667C277.333 130.4 278.8 124.267 281.067 117.067C288 94.9334 294.533 69.8667 296.667 57.3334C298.933 43.4667 299.333 20.9334 297.2 13.4667C293.467 -0.266625 279.733 -1.99996 267.6 9.73338C251.867 24.9334 239.6 61.6 230.667 120.667C228.933 131.867 228.267 134.667 227.333 133.733C226.933 133.333 221.467 117.867 215.2 99.3334C208.933 80.8 201.333 60.1334 198.4 53.4667C186.933 28.1334 172.267 7.60004 162.133 2.80004C156 -0.133292 146.933 0.133375 141.867 3.20004ZM236.4 160C253.733 163.6 269.2 174.667 279.733 191.067C282.533 195.467 285.733 201.867 286.667 205.2C288.933 213.6 287.733 230.133 284.133 239.467C280.267 249.067 269.867 262.667 261.6 269.067C238.533 286.533 201.6 283.333 178 261.733C174 258 170.267 253.467 169.867 251.467C169.333 249.6 168.133 247.067 167.2 246C164.267 242.533 161.333 228.667 161.333 217.867C161.333 200.667 168.533 184.933 181.6 173.467C197.333 159.733 214.8 155.467 236.4 160Z" fill="#4E5EE3"/>
<path d="M243.733 199.467C240.133 201.467 240.533 209.467 244.133 211.467C247.467 213.2 253.2 211.2 253.467 208.4C253.867 204.267 252.933 201.2 250.933 199.6C248.4 197.733 246.8 197.6 243.733 199.467Z" fill="#4E5EE3"/>
<path d="M196.933 204.4C193.733 208 194.133 212.266 198 214.8C201.067 216.8 201.6 216.8 204.667 214.8C208.933 212 209.067 206.933 205.067 204.133C201.2 201.333 199.6 201.466 196.933 204.4Z" fill="#4E5EE3"/>
<path d="M220.267 214.8C215.067 218.4 217.733 227.333 224 227.333C230.267 227.333 232.933 218.4 227.733 214.8C226.133 213.6 224.4 212.666 224 212.666C223.6 212.666 221.867 213.6 220.267 214.8Z" fill="#4E5EE3"/>
<path d="M197.867 230.666C192.4 239.066 205.334 254.533 220.134 257.333C231.467 259.466 244.667 251.066 248.134 239.466C250.267 232.533 248.8 229.466 242.934 228.933C238.667 228.533 234.667 232.266 234.667 236.8C234.667 240.133 230.134 243.333 225.334 243.333C219.467 243.333 212.667 238.933 210.534 233.6C209.6 231.333 208.134 228.933 207.467 228.4C204.534 226.266 200 227.466 197.867 230.666Z" fill="#4E5EE3"/>
</g>
<defs>
<clipPath id="clip0_611_103">
<rect width="467" height="452" fill="white"/>
</clipPath>
</defs>
</svg>
