<svg width="61" height="61" viewBox="0 0 61 61" fill="none" xmlns="http://www.w3.org/2000/svg">
<g clip-path="url(#clip0_307_627)">
<path d="M59.0938 35.0254C60.1697 34.9417 61 34.0425 61 32.9647V28.0352C61 26.9554 60.1697 26.0582 59.0938 25.9725L52.5615 25.4625C52.1464 25.4308 51.789 25.1702 51.6289 24.7848L49.4806 19.6003C49.3205 19.2168 49.3876 18.7775 49.6594 18.4629L53.9186 13.4812C54.6186 12.6602 54.5739 11.439 53.8088 10.6758L50.3239 7.19097C49.5607 6.42776 48.3376 6.37927 47.5185 7.08112L42.5369 11.3404C42.2222 11.6104 41.7811 11.6792 41.3995 11.521L36.2132 9.37089C35.8296 9.21267 35.5672 8.84965 35.5337 8.43825L35.0254 1.9078C34.9417 0.830291 34.0444 0 32.9648 0H28.0353C26.9556 0 26.0583 0.830291 25.9746 1.90816L25.4645 8.43861C25.4328 8.85191 25.1704 9.21303 24.7868 9.37124L19.6005 11.5214C19.217 11.6796 18.7778 11.6107 18.4612 11.3408L13.4815 7.08148C12.6624 6.37962 11.4412 6.42811 10.6761 7.19133L7.19121 10.6762C6.42799 11.4394 6.38141 12.6606 7.08136 13.4816L11.3406 18.4632C11.6087 18.7779 11.6795 19.2171 11.5193 19.6007L9.37113 24.7852C9.21469 25.1705 8.85179 25.4312 8.44028 25.4629L1.90625 25.9727C0.830291 26.0583 0 26.9556 0 28.0353V32.9629C0 34.0426 0.830291 34.9417 1.90625 35.0256L8.4404 35.5338C8.85179 35.5673 9.21481 35.8298 9.37124 36.2133L11.5195 41.3978C11.6796 41.7813 11.6088 42.2225 11.3408 42.5371L7.08148 47.5188C6.38153 48.3379 6.42811 49.559 7.19133 50.3242L10.6762 53.809C11.4413 54.5722 12.6625 54.6188 13.4816 53.917L18.4613 49.6577C18.7778 49.3896 19.2171 49.3189 19.6007 49.479L24.787 51.6272C25.1705 51.7873 25.4329 52.1465 25.4646 52.5617L25.9747 59.0922C26.0584 60.1682 26.9557 61.0004 28.0355 61.0004H32.9649C34.0447 61.0004 34.9419 60.1683 35.0257 59.0922L35.5339 52.5617C35.5674 52.1467 35.8299 51.7873 36.2134 51.6272L41.3997 49.479C41.7813 49.3189 42.2244 49.3896 42.5371 49.6577L47.5188 53.917C48.3379 54.6188 49.561 54.5722 50.3242 53.809L53.809 50.3242C54.5742 49.559 54.6188 48.3379 53.9189 47.5188L49.6596 42.5371C49.3915 42.2225 49.3208 41.7813 49.4809 41.3978L51.6291 36.2133C51.7892 35.8298 52.1467 35.5673 52.5617 35.5338L59.0938 35.0254ZM30.5 40.8076C27.7468 40.8076 25.1573 39.7353 23.21 37.79C21.2628 35.841 20.1905 33.2533 20.1905 30.4982C20.1905 27.745 21.2628 25.1555 23.21 23.2101C25.1573 21.2611 27.7467 20.1906 30.5 20.1906C33.2551 20.1906 35.8427 21.261 37.79 23.2101C39.7372 25.1555 40.8095 27.745 40.8095 30.4982C40.8095 33.2533 39.7372 35.841 37.79 37.79C35.8427 39.7353 33.2551 40.8076 30.5 40.8076Z" fill="#CDE4EE"/>
</g>
<defs>
<clipPath id="clip0_307_627">
<rect width="61" height="61" fill="white"/>
</clipPath>
</defs>
</svg>
