<svg width="244" height="244" viewBox="0 0 244 244" fill="none" xmlns="http://www.w3.org/2000/svg">
<path fill-rule="evenodd" clip-rule="evenodd" d="M52.2235 105.543C38.4505 143.318 32.9268 189.881 32.9264 220.767L0 220.766C0.000397223 187.105 5.87541 136.539 21.2891 94.2645C28.9866 73.1529 39.4891 52.911 53.8446 37.9699C68.5504 22.6642 87.733 12.5927 111.285 13.8417C124.837 14.5604 136.026 20.2492 144.254 29.5077C147.611 33.2854 150.353 37.5124 152.585 42.0074C156.852 39.0363 161.118 36.3597 165.342 34.0335C175.7 28.3307 187.051 24.0444 198.347 23.6739C210.38 23.2794 222.137 27.4235 230.815 37.7804C244.621 54.2591 242.024 75.103 236.767 91.575C231.35 108.552 221.289 126.688 212.094 142.72C210.807 144.966 209.538 147.168 208.294 149.325C200.191 163.386 193.167 175.574 189.014 185.832C186.682 191.592 185.89 195.291 185.821 197.37C186.138 197.475 186.407 197.426 186.82 197.344C188.347 197.04 191.22 195.769 195.056 192.382C202.799 185.547 209.705 174.328 212.399 165.675L243.837 175.462C239.432 189.613 229.307 206.067 216.847 217.066C210.583 222.596 202.563 227.782 193.25 229.637C183.159 231.646 172.646 229.465 163.709 221.984C155.395 215.024 152.744 205.547 152.896 196.929C153.038 188.902 155.548 180.753 158.494 173.476C163.581 160.91 171.948 146.417 179.89 132.662C181.118 130.534 182.337 128.423 183.531 126.34C192.933 109.947 201.204 94.7117 205.399 81.5648C209.756 67.9134 208.052 61.8819 205.576 58.9264C204.25 57.3435 202.75 56.4737 199.427 56.5826C195.368 56.7157 189.264 58.4503 181.223 62.8772C174.921 66.3469 168.183 71.0497 161.301 76.7045C162.851 95.9686 160.583 117.376 156.171 137.243C150.516 162.706 140.804 188.034 128.604 205.355C122.609 213.866 114.882 222.077 105.229 226.365C94.2856 231.226 82.1826 230.37 71.6555 222.615C60.9039 214.694 56.3729 203.106 55.629 191.52C54.9128 180.365 57.5708 168.474 61.7207 157.116C70.0617 134.289 86.1055 109.127 104.428 87.2823C111.189 79.2225 118.43 71.4114 125.924 64.1872C124.23 58.1728 121.984 54.016 119.641 51.3793C117.204 48.6363 114.222 46.9701 109.541 46.7219C97.517 46.0842 87.1679 50.8115 77.5877 60.7825C67.6572 71.1181 59.1193 86.6306 52.2235 105.543ZM127.36 111.215C111.63 130.461 98.955 151.154 92.6472 168.417C89.3206 177.521 88.1767 184.565 88.4878 189.411C88.7713 193.826 90.0967 195.304 91.1854 196.106C91.5487 196.373 91.5854 196.466 91.6064 196.462C91.6257 196.459 91.6319 196.376 91.8625 196.274C93.6356 195.486 97.1591 192.82 101.684 186.395C110.525 173.844 118.929 153.06 124.028 130.104C125.439 123.747 126.557 117.407 127.36 111.215Z" fill="#4E5DE3"/>
</svg>
